<svg width="2172" height="2172" viewBox="0 0 2172 2172" fill="none" xmlns="http://www.w3.org/2000/svg">
<rect width="2172" height="2172" fill="url(#paint0_linear_164_641)"/>
<g clip-path="url(#clip0_164_641)">
<path d="M1469.28 1086.01C1469.28 1362.15 1246.92 1586 972.647 1586C698.373 1586 476 1362.1 476 1086.01C476 809.921 698.356 586 972.647 586C1246.94 586 1469.28 809.87 1469.28 1086.01ZM2014.1 1086.01C2014.1 1345.93 1902.92 1556.73 1765.77 1556.73C1628.63 1556.73 1517.45 1345.93 1517.45 1086.01C1517.45 826.084 1628.61 615.289 1765.76 615.289C1902.9 615.289 2014.08 826.016 2014.08 1086.01M2236.94 1086.01C2236.94 1318.84 2197.85 1507.7 2149.61 1507.7C2101.37 1507.7 2062.29 1318.89 2062.29 1086.01C2062.29 853.129 2101.38 664.318 2149.61 664.318C2197.83 664.318 2236.94 853.112 2236.94 1086.01Z" fill="white"/>
</g>
<g clip-path="url(#clip1_164_641)">
<path d="M925.508 1086.01C925.508 1362.15 703.152 1586 428.878 1586C154.603 1586 -67.7695 1362.1 -67.7695 1086.01C-67.7695 809.921 154.586 586 428.878 586C703.169 586 925.508 809.87 925.508 1086.01ZM1470.33 1086.01C1470.33 1345.93 1359.15 1556.73 1222 1556.73C1084.86 1556.73 973.681 1345.93 973.681 1086.01C973.681 826.084 1084.84 615.289 1221.99 615.289C1359.13 615.289 1470.31 826.016 1470.31 1086.01M1693.17 1086.01C1693.17 1318.84 1654.08 1507.7 1605.84 1507.7C1557.6 1507.7 1518.52 1318.89 1518.52 1086.01C1518.52 853.129 1557.61 664.318 1605.84 664.318C1654.06 664.318 1693.17 853.112 1693.17 1086.01Z" fill="white"/>
</g>
<defs>
<linearGradient id="paint0_linear_164_641" x1="1086" y1="0" x2="1086" y2="2172" gradientUnits="userSpaceOnUse">
<stop stop-color="#8B92AF"/>
<stop offset="0.144301" stop-color="#697196"/>
<stop offset="0.29" stop-color="#4A5280"/>
<stop offset="0.43146" stop-color="#303866"/>
<stop offset="0.589892" stop-color="#1D2549"/>
<stop offset="0.702114" stop-color="#151B34"/>
<stop offset="0.844043" stop-color="#0D111C"/>
<stop offset="1"/>
</linearGradient>
<clipPath id="clip0_164_641">
<rect width="994.95" height="1000" fill="white" transform="translate(476 586)"/>
</clipPath>
<clipPath id="clip1_164_641">
<rect width="224.747" height="1000" fill="white" transform="translate(1470.95 586)"/>
</clipPath>
</defs>
</svg>
